OpenSim_Sub04_CSBaseline_RCS.mot
version=1
nRows=40
nColumns=11
inDegrees=no
endheader
time	Top_Thigh	Med_Thigh	Bot_Thigh	Top_Shank	2nd_Top_Shank	2nd_Bot_Shank	Bot_Shank	BNOx	BNOy	BNOZ
20.20000000	1396.97725216	1339.20362863	1230.04939935	1093.61965386	1218.56329907	1115.66380732	1040.72348728	390.47179313	-69.94748386	-136.73676276
20.21000000	1398.09919783	1339.48836554	1235.28728392	1094.65287806	1219.08650043	1117.12814178	1040.85710786	390.89667123	-70.36272772	-139.75500053
20.22000000	1399.05749405	1339.74242541	1241.13987904	1095.72127650	1219.55671598	1118.52331675	1040.95278792	383.61706824	-70.71710017	-143.01261912
20.23000000	1399.81649278	1339.94948652	1246.59335378	1096.72586471	1219.91995824	1119.70725210	1040.99809151	366.49532219	-70.99431566	-146.48201280
20.24000000	1400.34476608	1340.09477376	1250.70682438	1097.57470257	1220.12783199	1120.54955504	1040.98206860	337.69196213	-71.17999163	-150.12436579
20.25000000	1400.65445283	1340.17947836	1253.29248572	1098.24857320	1220.18967428	1121.04048852	1040.90910924	298.44592702	-71.27939160	-153.78513368
20.26000000	1400.78339400	1340.21421081	1254.60680866	1098.77116252	1220.14888106	1121.24149593	1040.79265327	251.81225247	-71.30936920	-157.24149840
20.27000000	1400.76976273	1340.20970336	1254.91200626	1099.16671097	1220.04928852	1121.21494062	1040.64625752	200.86944684	-71.28692786	-160.26975947
20.28000000	1400.65173219	1340.17668827	1254.47029157	1099.45945897	1219.93473282	1121.02318598	1040.48347882	148.69601850	-71.22907103	-162.64621639
20.29000000	1400.46747554	1340.12589776	1253.54387765	1099.67364697	1219.84905015	1120.72859536	1040.31787398	98.37047582	-71.15280212	-164.14716867
20.30000000	1400.25516592	1340.06806410	1252.39497756	1099.83351540	1219.83607667	1120.39353215	1040.16299983	52.97132717	-71.07512457	-164.54891583
20.31000000	1400.05297650	1340.01391953	1251.28580436	1099.96330470	1219.93964857	1120.08035971	1040.03241318	15.57708091	-71.01304183	-163.62775736
20.32000000	1399.89593274	1339.97343530	1250.46017243	1100.08581916	1220.19931188	1119.84700165	1039.93853430	-11.01210449	-70.98221762	-161.22010476
20.33000000	1399.78656458	1339.94872656	1249.97195518	1100.20903699	1220.61032283	1119.70554731	1039.88204987	-26.86964787	-70.98448534	-157.78294242
20.34000000	1399.70823129	1339.93727374	1249.76297107	1100.33218979	1221.14180909	1119.64104623	1039.85672443	-33.76422451	-71.01351918	-154.13935945
20.35000000	1399.64404441	1339.93649737	1249.77359027	1100.45439611	1221.76256058	1119.63819848	1039.85623305	-33.48642059	-71.06288789	-151.11717683
20.36000000	1399.57711545	1339.94381801	1249.94418296	1100.57477450	1222.44136724	1119.68170411	1039.87425077	-27.82682231	-71.12616021	-149.54421551
20.37000000	1399.49055594	1339.95665619	1250.21511928	1100.69244352	1223.14701903	1119.75626320	1039.90445268	-18.57601586	-71.19690487	-150.24829645
20.38000000	1399.36747739	1339.97243244	1250.52676941	1100.80652171	1223.84830587	1119.84657582	1039.94051383	-7.52458743	-71.26869064	-154.05724063
20.39000000	1399.19099132	1339.98856730	1250.81950351	1100.91612763	1224.51401770	1119.93734202	1039.97610929	3.53687679	-71.33508624	-161.79886900
20.40000000	1398.94426290	1340.00248540	1251.03380922	1101.02037377	1225.11299218	1120.01328749	1040.00492527	12.82080968	-71.38967088	-174.29624268
20.41000000	1398.62182810	1340.01247651	1251.13507749	1101.11708688	1225.62418238	1120.06457119	1040.02301179	19.17969068	-71.42824028	-191.36333495
20.42000000	1398.24359280	1340.01876068	1251.14426192	1101.20122512	1226.04911021	1120.09347435	1040.03169286	22.89402755	-71.45153550	-210.56271088
20.43000000	1397.83289553	1340.02181916	1251.08983405	1101.26735848	1226.39235130	1120.10391842	1040.03300608	24.43754965	-71.46096678	-229.15230527
20.44000000	1397.41307486	1340.02213317	1251.00026546	1101.31005696	1226.65848125	1120.09982487	1040.02898905	24.28398636	-71.45794431	-244.39005289
20.45000000	1397.00746933	1340.02018395	1250.90402770	1101.32389057	1226.85207569	1120.08511515	1040.02167937	22.90706703	-71.44387831	-253.53388853
20.46000000	1396.63941751	1340.01645275	1250.82959235	1101.30342932	1226.97771025	1120.06371074	1040.01311464	20.78052102	-71.42017899	-253.84174696
20.47000000	1396.33225795	1340.01142078	1250.80543096	1101.24324319	1227.03996053	1120.03953309	1040.00533248	18.37807770	-71.38825657	-242.57156298
20.48000000	1396.10932921	1340.00556929	1250.86001510	1101.13790220	1227.04340217	1120.01650367	1040.00037048	16.17346642	-71.34952126	-216.98127138
20.49000000	1395.99396316	1339.99937966	1251.02180522	1100.98198203	1226.99261036	1119.99854300	1040.00026518	14.64029639	-71.30538293	-174.33048346
20.50000000	1396.00063875	1339.99351950	1251.30451173	1100.77760835	1226.89160893	1119.98834312	1040.00563456	14.09270390	-71.25679697	-114.10358805
20.51000000	1396.11752956	1339.98920983	1251.67801738	1100.54934057	1226.74278332	1119.98494576	1040.01288157	14.37097328	-71.20336838	-42.39559758
20.52000000	1396.32794575	1339.98777401	1252.10410183	1100.32588573	1226.54821608	1119.98671775	1040.01762990	15.22778093	-71.14445247	33.47627299
20.53000000	1396.61519745	1339.99053537	1252.54454474	1100.13595088	1226.30998973	1119.99202592	1040.01550319	16.41580324	-71.07940457	106.19480865
20.54000000	1396.96259481	1339.99881724	1252.96112578	1100.00824307	1226.03018682	1119.99923709	1040.00212512	17.68771661	-71.00757999	168.44279444
20.55000000	1397.35340761	1340.01344758	1253.32060920	1099.96517437	1225.71142190	1120.00685922	1039.97437966	18.82948775	-70.92848547	214.07340495
20.56000000	1397.77068722	1340.03257491	1253.61671980	1099.99510860	1225.35918698	1120.01416349	1039.93596750	19.80714327	-70.84244664	243.27019349
20.57000000	1398.19741157	1340.05344600	1253.85225582	1100.07495082	1224.97994251	1120.02067792	1039.89288348	20.64730821	-70.75006477	258.34717562
20.58000000	1398.61655848	1340.07330694	1254.03002234	1100.18159744	1224.58014964	1120.02593077	1039.85112415	21.37665325	-70.65194130	261.61997235
20.59000000	1399.01110581	1340.08940382	1254.15282446	1100.29194489	1224.16626953	1120.02945026	1039.81668608	22.02184911	-70.54867769	255.40420470
